CddbId:9212811a:[150, 12761, 33235, 57818, 64114, 77041, 94754, 110082, 123279, 131525, 145915, 156849, 167978, 179769, 204154, 224732, 231713, 240713, 255210, 261215, 283459, 291250, 298688, 312396, 322625, 332923]:355425:74:9212811a 26 150 12761 33235 57818 64114 77041 94754 110082 123279 131525 145915 156849 167978 179769 204154 224732 231713 240713 255210 261215 283459 291250 298688 312396 322625 332923 4739: 26 0 0 0 0 0 0 0 0 0 0 0 0 0 0 0 0 0 0 0 0 0 0 0 0 0 0 4739
num_tracks: 26
offsets: [150, 12761, 33235, 57818, 64114, 77041, 94754, 110082, 123279, 131525, 145915, 156849, 167978, 179769, 204154, 224732, 231713, 240713, 255210, 261215, 283459, 291250, 298688, 312396, 322625, 332923]
extents: [0, 0, 0, 0, 0, 0, 0, 0, 0, 0, 0, 0, 0, 0, 0, 0, 0, 0, 0, 0, 0, 0, 0, 0, 0, 0]
total_length: 4739
cddb: [2450686234, 26, 150, 12761, 33235, 57818, 64114, 77041, 94754, 110082, 123279, 131525, 145915, 156849, 167978, 179769, 204154, 224732, 231713, 240713, 255210, 261215, 283459, 291250, 298688, 312396, 322625, 332923, 4739]
musicbrainz: ('26 150 12761 33235 57818 64114 77041 94754 110082 123279 131525 145915 156849 167978 179769 204154 224732 231713 240713 255210 261215 283459 291250 298688 312396 322625 332923 355478', 'J7tXBj46fz2_MCVENXtFLH1J4Vo-')

CD record:
Device type    : Removable CD-ROM
Version        : 0
Response Format: 2
Capabilities   : 
Vendor_info    : 'FREECOM_'
Identification : 'DVD+/-RW16H4    '
Revision       : 'FR00'
Device seems to be: Generic mmc2 DVD-R/DVD-RW.
Using generic SCSI-3/mmc   CD-R/CD-RW driver (mmc_cdr).
Driver flags   : MMC-3 SWABAUDIO BURNFREE 
Supported modes: TAO PACKET SAO SAO/R96R RAW/R96R
first: 1 last 26
track:   1 lba:         0 (        0) 00:02:00 adr: 1 control: 0 mode: -1
track:   2 lba:     12611 (    50444) 02:50:11 adr: 1 control: 0 mode: -1
track:   3 lba:     33085 (   132340) 07:23:10 adr: 1 control: 0 mode: -1
track:   4 lba:     57668 (   230672) 12:50:68 adr: 1 control: 0 mode: -1
track:   5 lba:     63964 (   255856) 14:14:64 adr: 1 control: 0 mode: -1
track:   6 lba:     76891 (   307564) 17:07:16 adr: 1 control: 0 mode: -1
track:   7 lba:     94604 (   378416) 21:03:29 adr: 1 control: 0 mode: -1
track:   8 lba:    109932 (   439728) 24:27:57 adr: 1 control: 0 mode: -1
track:   9 lba:    123129 (   492516) 27:23:54 adr: 1 control: 0 mode: -1
track:  10 lba:    131375 (   525500) 29:13:50 adr: 1 control: 0 mode: -1
track:  11 lba:    145765 (   583060) 32:25:40 adr: 1 control: 0 mode: -1
track:  12 lba:    156699 (   626796) 34:51:24 adr: 1 control: 0 mode: -1
track:  13 lba:    167828 (   671312) 37:19:53 adr: 1 control: 0 mode: -1
track:  14 lba:    179619 (   718476) 39:56:69 adr: 1 control: 0 mode: -1
track:  15 lba:    204004 (   816016) 45:22:04 adr: 1 control: 0 mode: -1
track:  16 lba:    224582 (   898328) 49:56:32 adr: 1 control: 0 mode: -1
track:  17 lba:    231563 (   926252) 51:29:38 adr: 1 control: 0 mode: -1
track:  18 lba:    240563 (   962252) 53:29:38 adr: 1 control: 0 mode: -1
track:  19 lba:    255060 (  1020240) 56:42:60 adr: 1 control: 0 mode: -1
track:  20 lba:    261065 (  1044260) 58:02:65 adr: 1 control: 0 mode: -1
track:  21 lba:    283309 (  1133236) 62:59:34 adr: 1 control: 0 mode: -1
track:  22 lba:    291100 (  1164400) 64:43:25 adr: 1 control: 0 mode: -1
track:  23 lba:    298538 (  1194152) 66:22:38 adr: 1 control: 0 mode: -1
track:  24 lba:    312246 (  1248984) 69:25:21 adr: 1 control: 0 mode: -1
track:  25 lba:    322475 (  1289900) 71:41:50 adr: 1 control: 0 mode: -1
track:  26 lba:    332773 (  1331092) 73:58:73 adr: 1 control: 0 mode: -1
track:lout lba:    355328 (  1421312) 78:59:53 adr: 1 control: 0 mode: -1
